<svg width="32" height="32" viewBox="0 0 32 32" fill="none" xmlns="http://www.w3.org/2000/svg">
<g filter="url(#filter0_d_4_646)">
<path d="M16 22C18.1217 22 20.1566 21.1571 21.6569 19.6569C23.1571 18.1566 24 16.1217 24 14C24 11.8783 23.1571 9.84344 21.6569 8.34315C20.1566 6.84285 18.1217 6 16 6C13.8783 6 11.8434 6.84285 10.3431 8.34315C8.84285 9.84344 8 11.8783 8 14C8 16.1217 8.84285 18.1566 10.3431 19.6569C11.8434 21.1571 13.8783 22 16 22ZM19.707 12.707C19.8892 12.5184 19.99 12.2658 19.9877 12.0036C19.9854 11.7414 19.8802 11.4906 19.6948 11.3052C19.5094 11.1198 19.2586 11.0146 18.9964 11.0123C18.7342 11.01 18.4816 11.1108 18.293 11.293L15 14.586L13.707 13.293C13.5184 13.1108 13.2658 13.01 13.0036 13.0123C12.7414 13.0146 12.4906 13.1198 12.3052 13.3052C12.1198 13.4906 12.0146 13.7414 12.0123 14.0036C12.01 14.2658 12.1108 14.5184 12.293 14.707L14.293 16.707C14.4805 16.8945 14.7348 16.9998 15 16.9998C15.2652 16.9998 15.5195 16.8945 15.707 16.707L19.707 12.707Z" fill="white" fill-opacity="0.9"/>
</g>
<defs>
<filter id="filter0_d_4_646" x="-2" y="-2" width="36" height="36" filterUnits="userSpaceOnUse" color-interpolation-filters="sRGB">
<feFlood flood-opacity="0" result="BackgroundImageFix"/>
<feColorMatrix in="SourceAlpha" type="matrix" values="0 0 0 0 0 0 0 0 0 0 0 0 0 0 0 0 0 0 127 0" result="hardAlpha"/>
<feOffset dy="2"/>
<feGaussianBlur stdDeviation="4"/>
<feColorMatrix type="matrix" values="0 0 0 0 0 0 0 0 0 0 0 0 0 0 0 0 0 0 0.8 0"/>
<feBlend mode="normal" in2="BackgroundImageFix" result="effect1_dropShadow_4_646"/>
<feBlend mode="normal" in="SourceGraphic" in2="effect1_dropShadow_4_646" result="shape"/>
</filter>
</defs>
</svg>
