<svg width="1031" height="86" viewBox="0 0 1031 86" fill="none" xmlns="http://www.w3.org/2000/svg">
<g clip-path="url(#clip0_4_614)">
<path d="M0.0628119 0L43.0159 7.15885C85.969 14.3177 171.875 28.6354 257.781 33.4318C343.688 37.9419 429.594 33.6466 515.5 30.9978C601.406 28.6354 687.312 28.6354 773.219 33.4318C859.125 37.9419 945.031 47.9643 987.984 52.4744L1030.94 57.2708V85.9062H987.984C945.031 85.9062 859.125 85.9062 773.219 85.9062C687.312 85.9062 601.406 85.9062 515.5 85.9062C429.594 85.9062 343.688 85.9062 257.781 85.9062C171.875 85.9062 85.969 85.9062 43.0159 85.9062H0.0628119V0Z" fill="#FFF5FA"/>
</g>
<defs>
<clipPath id="clip0_4_614">
<rect width="1031" height="85.9062" fill="white"/>
</clipPath>
</defs>
</svg>
